HIERARCHY
ROOT pelvis
{
  OFFSET 0 100 0
  CHANNELS 6 Xposition Yposition Zposition Zrotation Xrotation Yrotation
  JOINT pelvis_right_femur
  {
    OFFSET -10.78128 -3.44521 -0.5502486
    CHANNELS 3 Zrotation Xrotation Yrotation
    JOINT right_femur_tibia
    {
      OFFSET -0.8047443 -44.0398 -0.1307829
      CHANNELS 3 Zrotation Xrotation Yrotation
      JOINT right_tibia_foot
      {
        OFFSET 3.006224 -47.83518 -5
        CHANNELS 3 Zrotation Xrotation Yrotation
        End Site
        {
          OFFSET 0 -5 15
        }
      }
    }
  }
  JOINT pelvis_left_femur
  {
    OFFSET 10.78128 -3.44521 -0.5502486
    CHANNELS 3 Zrotation Xrotation Yrotation
    JOINT left_femur_tibia
    {
      OFFSET 0.8047443 -44.0398 -0.1307829
      CHANNELS 3 Zrotation Xrotation Yrotation
      JOINT left_tibia_foot
      {
        OFFSET -4.370144 -48.10324 -4.275266
        CHANNELS 3 Zrotation Xrotation Yrotation
        End Site
        {
          OFFSET 0 -5 15
        }
      }
    }
  }
  JOINT pelvis_spine1
  {
    OFFSET 0 6.468898 -3.129235
    CHANNELS 3 Zrotation Xrotation Yrotation
    JOINT spine1
    {
      OFFSET 0 23.15396 4.99043
      CHANNELS 3 Zrotation Xrotation Yrotation
      JOINT spine2
      {
        OFFSET 0 20.79997 -5.064912
        CHANNELS 3 Zrotation Xrotation Yrotation
        JOINT neck
        {
          OFFSET 0 14.38658 9.616178
          CHANNELS 3 Zrotation Xrotation Yrotation
          End Site
          {
            OFFSET 0 20 0
          }
        }
      }
      JOINT right_manubrium
      {
        OFFSET -5.722621 16.35077 3.967754
        CHANNELS 3 Zrotation Xrotation Yrotation
        JOINT right_clavicle
        {
          OFFSET -13.16364 1.694482 -4.693211
          CHANNELS 3 Zrotation Xrotation Yrotation
          JOINT right_humerus
          {
            OFFSET -28.5034 -0.3100689 -2.792744
            CHANNELS 3 Zrotation Xrotation Yrotation
            JOINT right_radius
            {
              OFFSET -25.15693 0.02248979 -1.271978
              CHANNELS 3 Zrotation Xrotation Yrotation
              End Site
              {
                OFFSET -15 0 0
              }
            }
          }
        }
      }
      JOINT left_manubrium
      {
        OFFSET 5.722621 16.35077 3.967754
        CHANNELS 3 Zrotation Xrotation Yrotation
        JOINT left_clavicle
        {
          OFFSET 13.16364 1.694482 -4.693211
          CHANNELS 3 Zrotation Xrotation Yrotation
          JOINT left_humerus
          {
            OFFSET 29.39168 -1.063119 -2.237045
            CHANNELS 3 Zrotation Xrotation Yrotation
            JOINT left_radius
            {
              OFFSET 24.59957 -0.9528479 0.9047498
              CHANNELS 3 Zrotation Xrotation Yrotation
              End Site
              {
                OFFSET 15 -0 -0
              }
            }
          }
        }
      }
    }
  }
}
MOTION
Frames: 17
Frame Time: 0.0416666666667
32.64333 100.9826 248.6697 1.608536 -8.234591 -6.496814 0.8737221 12.01431 5.507793 -0 16.22722 -0 5.644863 -10.78696 -1.80083 -2.890735 -14.25362 -6.012165 -0 27.9923 -0 -6.821872 -7.932679 17.90365 -1.641747 -0.5043915 8.130926 -0.9936424 10.19668 -3.22913 2.202008 21.81687 5.425991 1.647553 -14.85226 7.396332 2.139535 -19.10891 11.58972 82.81261 23.85044 -9.263808 -0 0 21.14178 -23.91911 14.48961 12.20954 4.986625 -16.3092 -3.495355 -90.30029 21.96992 19.9232 0 0 -15.19737 -1.555978 7.632394 14.41815
32.83692 100.7103 254.9117 1.725668 -8.432463 -6.453928 0.5335081 11.52335 5.29902 -0 18.7645 -0 5.858235 -10.76688 -2.094735 -3.23562 -13.79002 -6.349109 -0 26.39041 -0 -6.77306 -8.657544 17.80312 -1.849897 -0.398196 7.994857 -1.093432 9.956551 -3.130589 2.279763 22.01619 5.392026 1.528262 -14.66262 7.558059 1.995168 -18.96025 11.39759 82.94452 23.63978 -9.04421 -0 0 21.15606 -23.8392 14.31971 12.1338 4.961553 -16.06041 -3.508462 -90.15743 22.27803 19.6391 0 0 -14.88023 -1.642245 7.770947 14.46923
33.04712 100.4914 261.0916 1.850701 -8.621847 -6.268601 0.2085689 10.48671 5.013662 -0 21.38187 -0 5.98956 -10.55734 -2.503636 -3.676667 -12.67419 -6.74826 -0 25.06643 -0 -6.698579 -9.429064 17.61224 -2.072865 -0.3104275 7.761045 -1.144442 9.727309 -3.118404 2.352206 22.23465 5.364285 1.407943 -14.47476 7.726441 1.889326 -18.66372 11.1904 83.24759 23.51855 -9.119273 -0 0 20.83544 -23.65344 14.17355 11.9707 4.943642 -15.91758 -3.549777 -89.82994 22.60644 19.03312 0 0 -14.74075 -1.649894 7.950773 14.43228
33.26538 100.3535 267.2038 1.981911 -8.795557 -5.943037 -0.09314345 8.984371 4.665589 -0 23.93893 -0 6.032519 -10.20064 -3.006673 -4.175136 -10.9977 -7.179448 -0 24.04773 -0 -6.609164 -10.22461 17.34606 -2.302396 -0.2394539 7.443598 -1.148999 9.509182 -3.182978 2.421992 22.46676 5.33783 1.290397 -14.29287 7.894981 1.815849 -18.23614 10.97322 83.69644 23.47542 -9.457046 -0 0 20.21647 -23.36687 14.04669 11.72548 4.935841 -15.87557 -3.613019 -89.34074 22.94408 18.13752 0 0 -14.76741 -1.580335 8.171257 14.30625
33.48266 100.3118 273.2487 2.116099 -8.944173 -5.488865 -0.3623559 7.124347 4.275323 -0 26.25079 -0 5.977502 -9.755955 -3.574329 -4.685787 -8.88925 -7.609564 -0 23.34744 -0 -6.515585 -11.02026 17.02512 -2.529358 -0.1827165 7.06161 -1.110591 9.300352 -3.310814 2.492888 22.70571 5.306078 1.180545 -14.12184 8.055446 1.764115 -17.70101 10.75147 84.25792 23.4946 -10.01126 -0 0 19.352 -22.98691 13.93166 11.40622 4.94299 -15.92574 -3.689246 -88.72295 23.27817 16.99769 0 0 -14.94268 -1.436088 8.431846 14.08986
33.68919 100.3665 279.2345 2.248229 -9.057818 -4.927691 -0.5881943 5.02787 3.867237 -0 28.11595 -0 5.812748 -9.289947 -4.173038 -5.164646 -6.496264 -8.009017 -0 22.96753 -0 -6.427599 -11.79232 16.67247 -2.744562 -0.1372969 6.636569 -1.0334 9.097821 -3.486436 2.569151 22.94415 5.261799 1.083747 -13.96673 8.19897 1.721126 -17.08521 10.53063 84.89492 23.55888 -10.72803 -0 0 18.30335 -22.52261 13.81948 11.02282 4.97081 -16.05725 -3.768238 -88.01536 23.59624 15.66668 0 0 -15.24538 -1.220453 8.731737 13.78208
33.87444 100.5039 285.176 2.371848 -9.128738 -4.289525 -0.759956 2.811635 3.465415 -0 29.3607 -0 5.528115 -8.863735 -4.771042 -5.576716 -3.962117 -8.357003 -0 22.89899 -0 -6.352533 -12.52004 16.31013 -2.940093 -0.1004761 6.189231 -0.9221058 8.898599 -3.694587 2.654504 23.17537 5.19871 1.004697 -13.83183 8.317767 1.674472 -16.41564 10.31575 85.57154 23.65236 -11.55366 -0 0 17.13152 -21.98461 13.70151 10.58638 5.024205 -16.25822 -3.84044 -87.25694 23.88815 14.19924 0 0 -15.65258 -0.9377718 9.069022 13.38379
34.02747 100.7003 291.0934 2.479976 -9.153354 -3.609626 -0.8693311 0.5757917 3.090107 -0 29.87452 -0 5.118838 -8.522998 -5.342737 -5.899998 -1.409699 -8.643267 -0 23.12214 -0 -6.294334 -13.18726 15.95677 -3.110311 -0.07002235 5.737373 -0.7818443 8.70072 -3.92173 2.751254 23.3942 5.112787 0.9465873 -13.72009 8.406442 1.61476 -15.71694 10.11117 86.25692 23.76228 -12.44009 -0 0 15.89091 -21.38529 13.57088 10.10909 5.105775 -16.51614 -3.898481 -86.48287 24.14691 12.64789 0 0 -16.14001 -0.5939098 9.440023 12.89943
34.13759 100.9258 297.009 2.566073 -9.133139 -2.925012 -0.9116543 -1.596116 2.756145 -0 29.62289 -0 4.58739 -8.294892 -5.869544 -6.12497 1.06072 -8.866483 -0 23.60875 -0 -6.253369 -13.78177 15.6281 -3.251999 -0.04406249 5.295478 -0.6183745 8.503855 -4.156122 2.859879 23.59748 5.002784 0.9109287 -13.63303 8.462314 1.536629 -15.0116 9.920428 86.92568 23.87932 -13.34525 -0 0 14.62821 -20.73941 13.42285 9.604714 5.215019 -16.81754 -3.93765 -85.72448 24.36875 11.06356 0 0 -16.68009 -0.1968741 9.839143 12.33797
34.19539 101.1496 302.9444 2.624912 -9.074818 -2.271428 -0.886123 -3.626601 2.473005 -0 28.64494 -0 3.943806 -8.189991 -6.337752 -6.251729 3.360904 -9.031294 -0 24.32479 -0 -6.226506 -14.29261 15.33965 -3.363875 -0.02061411 4.876074 -0.4385471 8.309673 -4.386587 2.978917 23.78427 4.870223 0.8978976 -13.57107 8.484989 1.438737 -14.32221 9.746597 87.55533 23.99711 -14.22879 -0 0 13.38599 -20.06543 13.25434 9.090206 5.347897 -17.14645 -3.955572 -85.01264 24.55256 9.501012 0 0 -17.23717 0.2421602 10.25903 11.71403
34.19413 101.3434 308.917 2.653317 -8.99043 -1.680983 -0.7955664 -5.429382 2.245457 -0 27.04707 -0 3.205478 -8.205826 -6.735018 -6.287058 5.398793 -9.145625 -0 25.23262 -0 -6.20708 -14.70664 15.11047 -3.445907 0.002999996 4.49177 -0.2509489 8.122165 -4.600744 3.104934 23.95585 4.719245 0.9068501 -13.53405 8.475698 1.323382 -13.67467 9.592735 88.1222 24.11155 -15.04557 -0 0 12.20833 -19.38725 13.06313 8.587774 5.496424 -17.48237 -3.951655 -84.38263 24.6996 8.026568 0 0 -17.7613 0.7074885 10.69081 11.04911
34.13125 101.4854 314.9364 2.650621 -8.896875 -1.18047 -0.6460895 -6.900004 2.074068 -0 24.99364 -0 2.396448 -8.330362 -7.047654 -6.242191 7.067939 -9.218601 -0 26.29274 -0 -6.185106 -15.00635 14.96538 -3.498756 0.03049478 4.15662 -0.06618669 7.947699 -4.783908 3.232657 24.11571 4.556297 0.9367365 -13.5215 8.436734 1.195917 -13.10023 9.462101 88.59876 24.22038 -15.74168 -0 0 11.14459 -18.73504 12.84749 8.125883 5.648666 -17.79922 -3.926644 -83.87697 24.81342 6.722548 0 0 -18.18506 1.178158 11.12457 10.37204
34.00943 101.5627 321.0026 2.618525 -8.813893 -0.790528 -0.4464853 -7.922339 1.955467 -0 22.68616 -0 1.545209 -8.545529 -7.260656 -6.130961 8.252945 -9.258855 -0 27.46541 -0 -6.148596 -15.17126 14.93299 -3.523512 0.06631477 3.88551 0.1039363 7.794262 -4.920008 3.355624 24.26884 4.389327 0.9862854 -13.53283 8.371047 1.063677 -12.63342 9.357875 88.95489 24.32287 -16.25768 -0 0 10.24706 -18.14264 12.60643 7.736819 5.790024 -18.0674 -3.882334 -83.54216 24.89949 5.681165 0 0 -18.42964 1.629518 11.55038 9.716578
33.83631 101.5719 327.1055 2.560207 -8.760296 -0.5257338 -0.2072942 -8.391741 1.882743 -0 20.32874 -0 0.6806932 -8.830908 -7.36071 -5.967923 8.851696 -9.273236 -0 28.71265 -0 -6.086258 -15.18297 15.03925 -3.52169 0.1146301 3.691474 0.2484015 7.669792 -4.994582 3.467403 24.42047 4.226386 1.053994 -13.56726 8.281981 0.9343233 -12.30583 9.282441 89.1636 24.41913 -16.53956 -0 0 9.562367 -17.64168 12.3403 7.450595 5.906015 -18.25924 -3.821322 -83.4195 24.96386 4.987235 0 0 -18.42083 2.037437 11.95966 9.115612
33.62316 101.5183 333.2268 2.479078 -8.75015 -0.3953807 0.06019762 -8.240584 1.846253 -0 18.09428 -0 -0.1719098 -9.166299 -7.339821 -5.766759 8.800231 -9.266414 -0 29.99904 -0 -5.990334 -15.03083 15.30023 -3.495323 0.1781714 3.582662 0.3589736 7.580418 -4.997999 3.5628 24.57469 4.074324 1.138098 -13.62378 8.173112 0.814254 -12.13939 9.236736 89.20766 24.50912 -16.55078 -0 0 9.122111 -17.25545 12.05106 7.288676 5.985262 -18.35476 -3.746709 -83.53561 25.01073 4.699695 0 0 -18.10609 2.38312 12.34635 8.59487
33.38299 101.4136 339.3438 2.377828 -8.790642 -0.4043087 0.3444847 -7.451866 1.834576 -0 16.10834 -0 -0.9935281 -9.531488 -7.196999 -5.539501 8.086224 -9.241662 -0 31.28965 -0 -5.857976 -14.71502 15.71813 -3.447028 0.2574113 3.56068 0.43106 7.529569 -4.927072 3.638433 24.73357 3.93831 1.236684 -13.70132 8.048233 0.707723 -12.14302 9.220027 89.08341 24.59135 -16.27858 -0 0 8.938222 -16.99651 11.74199 7.261124 6.021231 -18.34479 -3.661879 -83.89806 25.04014 4.842237 0 0 -17.46372 2.656199 12.70699 8.169213
33.12893 101.2733 345.433 2.258107 -8.881569 -0.55327 0.6335784 -6.060955 1.835124 -0 14.45282 -0 -1.771522 -9.902576 -6.937705 -5.296785 6.751348 -9.202556 -0 32.54389 -0 -5.690774 -14.24745 16.28035 -3.380034 0.3500177 3.620233 0.4634071 7.518106 -4.785079 3.692586 24.89675 3.822328 1.347962 -13.79931 7.911572 0.6166289 -12.3127 9.229999 88.80154 24.66223 -15.73456 -0 0 9.003205 -16.86796 11.4171 7.367343 6.012607 -18.2313 -3.570572 -84.49517 25.04675 5.403266 0 0 -16.50377 2.855948 13.04027 7.841681
